<svg xmlns="http://www.w3.org/2000/svg" xmlns:xlink="http://www.w3.org/1999/xlink" version="1.1" x="0px" y="0px" viewBox="0 0 595.3 577" style="0 0 595.3 577;" xml:space="preserve"><g><circle cx="517.4" cy="195.5" r="9.2"/><circle cx="485.8" cy="206.3" r="9.2"/><circle cx="454.1" cy="213" r="9.2"/><circle cx="517.4" cy="295.1" r="9.2"/><circle cx="485.8" cy="306" r="9.2"/><circle cx="454.1" cy="312.7" r="9.2"/><circle cx="520.2" cy="394.6" r="9.2"/><circle cx="488.5" cy="405.4" r="9.2"/><circle cx="456.9" cy="412.1" r="9.2"/><circle cx="57.4" cy="363.9" r="7.2"/><circle cx="73.8" cy="363.9" r="7.2"/><circle cx="90.3" cy="363.9" r="7.2"/><circle cx="57.3" cy="440.4" r="7.2"/><circle cx="73.7" cy="440.4" r="7.2"/><circle cx="90.2" cy="440.4" r="7.2"/><circle cx="56.2" cy="519.3" r="7.2"/><circle cx="72.6" cy="519.3" r="7.2"/><circle cx="89.1" cy="519.3" r="7.2"/><path d="M63.4,292.6h34.6c4.8,0,8.6-3.9,8.6-8.6c0-4.8-3.9-8.6-8.6-8.6H63.4c-4.8,0-8.6,3.9-8.6,8.6   C54.7,288.7,58.6,292.6,63.4,292.6z"/><path d="M237.6,292.6h76.2c4.8,0,8.6-3.9,8.6-8.6c0-4.8-3.9-8.6-8.6-8.6h-76.2c-4.8,0-8.6,3.9-8.6,8.6   C229,288.7,232.9,292.6,237.6,292.6z"/><path d="M129.7,292.6h76.2c4.8,0,8.6-3.9,8.6-8.6c0-4.8-3.9-8.6-8.6-8.6h-76.2c-4.8,0-8.6,3.9-8.6,8.6   C121,288.7,124.9,292.6,129.7,292.6z"/><path d="M345.6,292.6h34.6c4.8,0,8.6-3.9,8.6-8.6c0-4.8-3.9-8.6-8.6-8.6h-34.6c-4.8,0-8.6,3.9-8.6,8.6   C336.9,288.7,340.8,292.6,345.6,292.6z"/><path d="M417.5,235.2H25.1c-5.6,0-10.2,4.6-10.2,10.2v311.9c0,5.6,4.6,10.2,10.2,10.2h392.4   c5.6,0,10.2-4.6,10.2-10.2V245.3C427.7,239.7,423.1,235.2,417.5,235.2z M410.3,252.5v61.6h-378v-61.6H410.3z M311.3,331.5v60.8   h-82.1v-60.8H311.3z M211.8,392.2h-81.2v-60.8h81.2V392.2z M113.3,392.2h-81v-60.8h81V392.2z M113.3,409.6v61.1h-81v-61.1H113.3z    M130.6,409.6h81.2v61.1h-81.2V409.6z M211.8,488.1v62h-81.2v-62H211.8z M229.2,488.1h82.1v62h-82.1V488.1z M229.2,470.7v-61.1   h82.1v61.1H229.2z M328.6,409.6h81.7v61.1h-81.7V409.6z M328.6,392.2v-60.8h81.7v60.8H328.6z M32.3,488.1h81v62h-81V488.1z    M328.6,550.1v-62h81.7v62H328.6z"/><path d="M580.2,93.1c-0.9-9.6-5.4-22.6-20.2-35.5c-11.1-9.7-26.7-18.3-46.2-25.4c-38.2-14.1-88.6-21.8-142-21.8   s-103.9,7.7-142,21.8c-19.5,7.2-35,15.7-46.2,25.4C171,68.5,165.8,79.5,164,88.4h-0.9v135.3h53.8c-16.9-9.5-23.5-19-23.5-25.6   c0-0.5,0-1,0.1-1.5l-0.1,0v-53c9.9,6.6,22,12.6,36.3,17.9c38.2,14.1,88.6,21.8,142,21.8s103.9-7.7,142-21.8   c14.3-5.3,26.4-11.3,36.3-17.9v52.7l-0.1,0c0.1,0.6,0.1,1.2,0.1,1.9c0,9.2-12.3,23.5-46.7,36.2c-18.5,6.8-40.3,12-64.1,15.4v30.6   c27.7-3.7,53.1-9.6,74.6-17.5c14.3-5.3,26.4-11.3,36.3-17.9v51.9l-0.1,0c0.1,0.6,0.1,1.2,0.1,1.9c0,9.2-12.3,23.5-46.7,36.2   c-18.5,6.8-40.3,12-64.1,15.4v30.6c27.7-3.7,53.1-9.6,74.6-17.5c14.3-5.3,26.4-11.3,36.3-17.9v51.9l-0.1,0c0.1,0.6,0.1,1.2,0.1,1.9   c0,9.2-12.3,23.5-46.7,36.2c-18.5,6.8-40.3,12-64.1,15.4V481c27.7-3.7,53.1-9.6,74.6-17.5c19.5-7.2,35-15.7,46.2-25.4   c16.9-14.7,20.4-29.4,20.4-39.2V93.1H580.2z M503.3,132.9c-34.9,12.9-81.6,19.9-131.6,19.9c-49.9,0-96.7-7.1-131.6-19.9   c-34.5-12.7-46.7-27-46.7-36.2s12.3-23.5,46.7-36.2c34.9-12.9,81.6-19.9,131.6-19.9c49.9,0,96.7,7.1,131.6,19.9   c34.5,12.7,46.7,27,46.7,36.2S537.8,120.2,503.3,132.9z"/></g></svg>