<svg xmlns="http://www.w3.org/2000/svg" xmlns:xlink="http://www.w3.org/1999/xlink" version="1.1" x="0px" y="0px" viewBox="0 0 50 50" style="0 0 50 50;" xml:space="preserve"><path d="M39.286377,21.9400024c0.6757813-0.881958,1.0324707-1.8267212,1.0324707-2.7935181V9.449707  C40.3188477,4.6328125,31.8671875,1,20.659668,1C9.4516602,1,1,4.6328125,1,9.449707v8.5732422v1.1235352v7.4492188v1.1240234  v8.5727539c0,4.8168945,8.4516602,8.449707,19.659668,8.449707c1.4678345,0,2.9213257-0.0767212,4.3399048-0.2086792  C27.5307617,47.2721558,31.1403809,49,35.1547852,49C42.7890625,49,49,42.7890625,49,35.1547852  C49,28.9590454,44.9088135,23.7016602,39.286377,21.9400024z M20.659668,3c10.4067383,0,17.6591797,3.3989258,17.6591797,6.449707  s-7.2524414,6.449707-17.6591797,6.449707C10.2524414,15.8994141,3,12.5004883,3,9.449707S10.2524414,3,20.659668,3z M3,18.0229492  v-4.757019c3.135498,2.7922974,9.6916504,4.6334839,17.659668,4.6334839c7.9676514,0,14.5237427-1.8411865,17.6591797-4.6334229  v5.8804932c0,0.9199829-0.6495972,1.7262573-1.2987061,2.303833c-0.6117554-0.0829468-1.2312622-0.1407471-1.8653564-0.1407471  c-3.8009033,0-7.2476196,1.5410767-9.7520142,4.0293579c-1.5380859,0.164917-3.1286621,0.2567749-4.743103,0.2567749  C10.2524414,25.5957031,3,22.1967773,3,19.1464844V18.0229492z M3,26.5957031v-3.6331177  c3.135498,2.7921143,9.6916504,4.6331177,17.659668,4.6331177c1.0009155,0,1.991272-0.0380249,2.9707642-0.0993042  c-1.2894287,1.9338989-2.0942993,4.2106323-2.2703247,6.6602783c-0.2338867,0.0036011-0.4644165,0.0122681-0.7004395,0.0122681  C10.2524414,34.1689453,3,30.7700195,3,27.7197266V26.5957031z M20.659668,42.7421875  C10.2524414,42.7421875,3,39.3432617,3,36.2924805v-4.7566528c3.135498,2.7921143,9.6916504,4.6331177,17.659668,4.6331177  c0.2359619,0,0.4666138-0.0088501,0.7006226-0.012207c0.1715088,2.3778687,0.9407959,4.5889893,2.1660156,6.4852905  C22.579834,42.7017212,21.6246338,42.7421875,20.659668,42.7421875z M35.1547852,47  c-6.53125,0-11.8452148-5.3139648-11.8452148-11.8452148s5.3139648-11.8452148,11.8452148-11.8452148S47,28.6235352,47,35.1547852  S41.6860352,47,35.1547852,47z"/><path d="M35.1547852,28.7382813c-3.4682617,0.0004883-6.6943359,2.0898438-9.0844727,5.8833008l-0.3359375,0.5332031  l0.3359375,0.5332031c2.3901367,3.793457,5.6162109,5.8828125,9.0844727,5.8833008  c3.4677734,0,6.6943359-2.0898438,9.0849609-5.8833008l0.3359375-0.5332031l-0.3359375-0.5332031  C41.8491211,30.8276367,38.6225586,28.7382813,35.1547852,28.7382813z M35.1547852,39.5712891  c-2.5986328-0.0004883-5.0810547-1.5629883-7.0415039-4.4165039c1.9604492-2.8535156,4.4428711-4.4160156,7.0415039-4.4165039  c2.5986328,0,5.0810547,1.5625,7.0419922,4.4165039C40.2358398,38.0087891,37.753418,39.5712891,35.1547852,39.5712891z"/><path d="M35.1547852,31.9023438c-1.793457,0-3.2524414,1.4589844-3.2524414,3.2524414s1.4589844,3.2524414,3.2524414,3.2524414  s3.2524414-1.4589844,3.2524414-3.2524414S36.9482422,31.9023438,35.1547852,31.9023438z M35.1547852,36.4072266  c-0.6904297,0-1.2524414-0.5620117-1.2524414-1.2524414s0.5620117-1.2524414,1.2524414-1.2524414  s1.2524414,0.5620117,1.2524414,1.2524414S35.8452148,36.4072266,35.1547852,36.4072266z"/></svg>